<svg xmlns="http://www.w3.org/2000/svg" xmlns:xlink="http://www.w3.org/1999/xlink" width="500" zoomAndPan="magnify" viewBox="0 0 375 374.999991" height="500" preserveAspectRatio="xMidYMid meet" version="1.0"><defs><g/><clipPath id="97c717daaa"><path d="M 89.488281 255.085938 L 261.652344 255.085938 L 261.652344 299.195312 L 89.488281 299.195312 Z M 89.488281 255.085938 " clip-rule="nonzero"/></clipPath><clipPath id="7dcf726ba8"><path d="M 89.488281 27.816406 L 307.628906 27.816406 L 307.628906 298.875 L 89.488281 298.875 Z M 89.488281 27.816406 " clip-rule="nonzero"/></clipPath></defs><g fill="#ffffff" fill-opacity="1"><g transform="translate(83.286875, 346.026106)"><g><path d="M 7.964844 -15.480469 C 7.914062 -18.25 7.914062 -22.207031 7.914062 -26.164062 C 7.914062 -26.3125 7.914062 -26.414062 7.914062 -26.511719 C 7.914062 -26.5625 7.914062 -26.609375 7.914062 -26.660156 C 7.964844 -26.710938 8.011719 -26.808594 8.0625 -26.90625 C 8.160156 -26.859375 8.261719 -26.859375 8.359375 -26.808594 C 8.707031 -26.511719 9.003906 -26.164062 9.25 -25.820312 C 10.238281 -24.582031 11.226562 -23.394531 12.316406 -22.257812 C 12.515625 -22.058594 12.664062 -21.8125 12.859375 -21.566406 C 13.402344 -20.875 13.847656 -20.179688 14.292969 -19.4375 C 14.691406 -18.84375 15.085938 -18.25 15.53125 -17.757812 C 15.925781 -17.3125 16.222656 -16.867188 16.519531 -16.421875 C 16.917969 -15.828125 17.3125 -15.234375 17.757812 -14.691406 C 18.84375 -13.15625 19.984375 -11.574219 21.023438 -9.992188 C 21.515625 -9.300781 22.011719 -8.605469 22.554688 -7.964844 C 22.753906 -7.714844 22.949219 -7.46875 23.097656 -7.222656 C 24.1875 -5.738281 25.226562 -4.203125 26.214844 -2.621094 C 26.757812 -1.832031 27.351562 -1.089844 28.09375 -0.445312 C 28.144531 -0.445312 28.144531 -0.394531 28.195312 -0.347656 C 28.539062 -0.148438 28.933594 0 29.332031 -0.0976562 C 29.527344 -0.148438 29.726562 -0.199219 29.925781 -0.296875 C 30.121094 -0.347656 30.222656 -0.542969 30.269531 -0.742188 C 30.269531 -0.890625 30.320312 -1.039062 30.320312 -1.1875 C 30.320312 -3.3125 30.320312 -5.390625 30.269531 -7.519531 C 30.222656 -11.625 30.171875 -15.777344 30.171875 -19.882812 C 30.171875 -20.527344 30.171875 -21.167969 30.171875 -21.8125 C 30.171875 -22.605469 30.222656 -23.347656 30.074219 -24.089844 C 30.023438 -24.335938 30.023438 -24.582031 30.023438 -24.832031 C 30.023438 -27.203125 29.972656 -29.578125 29.972656 -31.902344 C 29.972656 -32.003906 29.972656 -32.101562 29.972656 -32.199219 C 30.023438 -32.59375 30.171875 -32.890625 30.417969 -33.140625 C 30.714844 -33.484375 31.113281 -33.734375 31.605469 -33.734375 C 32.300781 -33.734375 32.992188 -33.882812 33.683594 -34.078125 C 33.832031 -34.078125 33.929688 -34.179688 34.03125 -34.328125 C 34.078125 -34.328125 34.078125 -34.425781 34.078125 -34.476562 C 34.078125 -34.523438 33.980469 -34.625 33.882812 -34.625 C 33.78125 -34.671875 33.683594 -34.671875 33.585938 -34.671875 C 30.566406 -34.671875 27.550781 -34.671875 24.535156 -34.625 C 24.433594 -34.625 24.335938 -34.625 24.238281 -34.625 C 24.089844 -34.574219 23.890625 -34.375 23.941406 -34.179688 C 23.941406 -34.078125 24.136719 -33.832031 24.238281 -33.832031 C 24.386719 -33.832031 24.535156 -33.78125 24.683594 -33.78125 C 25.078125 -33.78125 25.472656 -33.78125 25.867188 -33.78125 C 26.164062 -33.78125 26.460938 -33.78125 26.757812 -33.734375 C 27.105469 -33.632812 27.402344 -33.4375 27.550781 -33.089844 C 27.699219 -32.792969 27.796875 -32.496094 27.796875 -32.199219 C 27.847656 -31.855469 27.847656 -31.507812 27.847656 -31.160156 C 27.847656 -29.972656 27.847656 -28.738281 27.847656 -27.550781 C 27.847656 -23.742188 27.847656 -19.933594 27.796875 -16.074219 C 27.796875 -15.730469 27.796875 -15.382812 27.796875 -15.035156 C 27.796875 -14.988281 27.75 -14.9375 27.699219 -14.886719 C 27.699219 -14.789062 27.601562 -14.738281 27.5 -14.738281 C 27.253906 -14.691406 27.054688 -14.789062 26.957031 -14.9375 C 26.460938 -15.582031 25.96875 -16.222656 25.523438 -16.867188 C 25.078125 -17.558594 24.632812 -18.203125 24.136719 -18.84375 C 23.394531 -19.734375 22.703125 -20.675781 22.058594 -21.613281 C 21.761719 -22.011719 21.464844 -22.40625 21.167969 -22.800781 C 20.625 -23.496094 20.03125 -24.089844 19.488281 -24.78125 C 19.140625 -25.125 18.84375 -25.523438 18.5 -25.917969 C 18.203125 -26.3125 17.804688 -26.710938 17.507812 -27.203125 C 17.359375 -27.402344 17.164062 -27.601562 17.015625 -27.796875 C 16.667969 -28.144531 16.324219 -28.492188 15.976562 -28.886719 C 15.53125 -29.429688 15.085938 -29.972656 14.640625 -30.519531 C 14.34375 -30.863281 14.097656 -31.210938 13.800781 -31.558594 C 13.453125 -31.953125 13.109375 -32.300781 12.761719 -32.644531 C 12.414062 -32.992188 12.019531 -33.335938 11.671875 -33.734375 C 11.523438 -33.832031 11.375 -33.980469 11.226562 -34.128906 C 11.078125 -34.226562 10.882812 -34.328125 10.683594 -34.328125 C 10.585938 -34.375 10.484375 -34.375 10.386719 -34.375 C 8.261719 -34.425781 6.183594 -34.425781 4.054688 -34.375 C 3.957031 -34.375 3.859375 -34.375 3.757812 -34.328125 C 3.414062 -34.328125 3.066406 -34.179688 2.769531 -33.980469 C 2.71875 -33.929688 2.621094 -33.832031 2.570312 -33.78125 C 2.472656 -33.632812 2.472656 -33.335938 2.570312 -33.238281 C 2.71875 -33.089844 2.820312 -32.992188 2.96875 -32.941406 C 3.363281 -32.742188 3.710938 -32.449219 4.007812 -32.101562 C 4.351562 -31.804688 4.550781 -31.410156 4.648438 -30.914062 C 4.699219 -30.566406 4.699219 -30.222656 4.796875 -29.875 C 4.898438 -29.332031 4.945312 -28.785156 4.898438 -28.242188 C 4.847656 -25.867188 4.898438 -23.542969 4.945312 -21.167969 C 4.996094 -19.933594 4.996094 -18.746094 4.996094 -17.558594 C 4.996094 -12.664062 4.945312 -7.816406 4.996094 -2.917969 C 4.996094 -2.621094 4.996094 -2.324219 4.945312 -2.027344 C 4.898438 -1.582031 4.648438 -1.285156 4.203125 -1.136719 C 3.859375 -1.039062 3.460938 -0.890625 3.066406 -0.890625 C 2.671875 -0.839844 2.375 -0.691406 2.078125 -0.542969 C 1.929688 -0.445312 1.832031 -0.347656 1.78125 -0.199219 C 1.730469 -0.0976562 1.683594 0 1.78125 0.0976562 C 1.832031 0.148438 1.878906 0.246094 1.976562 0.296875 C 2.175781 0.296875 2.375 0.347656 2.570312 0.347656 C 5.09375 0.347656 7.617188 0.347656 10.089844 0.347656 C 10.535156 0.347656 10.929688 0.347656 11.328125 0.347656 C 11.425781 0.347656 11.523438 0.296875 11.625 0.246094 C 11.722656 0.246094 11.820312 0.0507812 11.773438 -0.0976562 C 11.671875 -0.296875 11.523438 -0.445312 11.328125 -0.496094 C 10.683594 -0.644531 10.089844 -0.839844 9.398438 -0.890625 C 9.199219 -0.890625 9.003906 -0.941406 8.804688 -0.988281 C 8.308594 -1.089844 8.011719 -1.535156 7.964844 -1.929688 C 7.964844 -2.820312 7.914062 -3.757812 7.914062 -4.648438 C 7.914062 -7.863281 7.914062 -11.078125 7.964844 -15.480469 Z M 7.964844 -15.480469 "/></g></g></g><g fill="#ffffff" fill-opacity="1"><g transform="translate(128.641797, 346.026106)"><g><path d="M 19.191406 -34.523438 C 18.648438 -34.523438 18.054688 -34.523438 17.507812 -34.523438 C 17.261719 -34.523438 17.015625 -34.523438 16.769531 -34.476562 C 16.175781 -34.375 15.582031 -34.328125 14.988281 -34.328125 C 14.589844 -34.277344 14.195312 -34.277344 13.800781 -34.128906 C 13.652344 -34.128906 13.503906 -34.078125 13.355469 -34.078125 C 12.5625 -33.929688 11.773438 -33.683594 11.078125 -33.335938 C 10.535156 -33.089844 9.992188 -32.792969 9.449219 -32.546875 C 9.300781 -32.496094 9.152344 -32.398438 9.050781 -32.300781 C 8.261719 -31.804688 7.46875 -31.210938 6.777344 -30.566406 C 6.480469 -30.222656 6.183594 -29.875 5.933594 -29.527344 C 5.539062 -28.933594 5.09375 -28.390625 4.699219 -27.796875 C 4.351562 -27.253906 4.105469 -26.660156 3.808594 -26.066406 C 3.710938 -25.769531 3.5625 -25.523438 3.414062 -25.226562 C 2.820312 -24.1875 2.375 -23.097656 2.125 -21.910156 C 2.125 -21.8125 2.078125 -21.714844 2.027344 -21.613281 C 1.878906 -20.972656 1.730469 -20.328125 1.683594 -19.6875 C 1.582031 -18.546875 1.535156 -17.359375 1.535156 -16.222656 C 1.535156 -15.925781 1.582031 -15.628906 1.632812 -15.332031 C 1.683594 -14.542969 1.832031 -13.847656 2.175781 -12.21875 C 2.226562 -11.773438 2.375 -11.328125 2.570312 -10.929688 C 2.621094 -10.78125 2.71875 -10.683594 2.769531 -10.535156 C 2.96875 -9.792969 3.363281 -9.152344 3.710938 -8.457031 C 3.957031 -7.914062 4.304688 -7.417969 4.75 -6.972656 C 5.09375 -6.628906 5.390625 -6.28125 5.785156 -5.886719 C 6.035156 -5.6875 6.28125 -5.441406 6.578125 -5.242188 C 7.121094 -4.847656 7.617188 -4.453125 8.0625 -3.957031 C 8.457031 -3.609375 8.902344 -3.265625 9.347656 -2.917969 C 10.1875 -2.375 11.03125 -1.878906 11.921875 -1.386719 C 12.070312 -1.285156 12.167969 -1.238281 12.316406 -1.1875 C 13.109375 -0.839844 13.898438 -0.542969 14.691406 -0.199219 C 14.988281 -0.0976562 15.234375 0 15.582031 0.0507812 C 15.777344 0.0507812 15.976562 0.0976562 16.175781 0.148438 C 16.667969 0.296875 17.261719 0.296875 17.804688 0.347656 C 18.449219 0.347656 19.09375 0.347656 19.734375 0.296875 C 20.03125 0.296875 20.378906 0.296875 20.675781 0.246094 C 21.167969 0.148438 21.664062 0.0976562 22.160156 0.0507812 C 22.851562 0 23.496094 -0.246094 24.1875 -0.394531 C 24.632812 -0.542969 25.078125 -0.644531 25.472656 -0.890625 C 25.71875 -1.039062 25.96875 -1.1875 26.265625 -1.285156 C 26.90625 -1.582031 27.5 -1.976562 28.046875 -2.421875 C 28.292969 -2.621094 28.589844 -2.867188 28.886719 -3.066406 C 29.777344 -3.710938 30.566406 -4.5 31.261719 -5.34375 C 31.953125 -6.132812 32.59375 -6.972656 33.140625 -7.863281 C 33.335938 -8.160156 33.484375 -8.507812 33.632812 -8.804688 C 33.980469 -9.59375 34.179688 -10.4375 34.523438 -11.226562 C 34.773438 -11.820312 34.820312 -12.464844 34.96875 -13.109375 C 35.117188 -13.453125 35.070312 -13.800781 35.117188 -14.144531 C 35.117188 -14.441406 35.167969 -14.738281 35.265625 -15.035156 C 35.367188 -15.332031 35.367188 -15.628906 35.367188 -15.925781 C 35.367188 -16.816406 35.414062 -17.757812 35.367188 -18.648438 C 35.367188 -19.09375 35.367188 -19.539062 35.21875 -19.984375 C 35.167969 -20.179688 35.167969 -20.378906 35.117188 -20.578125 C 35.117188 -21.070312 34.96875 -21.566406 34.820312 -22.058594 C 34.425781 -23.691406 33.734375 -25.175781 32.792969 -26.5625 C 32.300781 -27.351562 31.707031 -28.09375 31.113281 -28.886719 C 30.667969 -29.527344 30.074219 -30.074219 29.480469 -30.617188 C 28.933594 -31.113281 28.34375 -31.605469 27.796875 -32.101562 C 27.253906 -32.546875 26.660156 -32.941406 26.015625 -33.289062 C 25.671875 -33.4375 25.324219 -33.632812 24.976562 -33.78125 C 24.335938 -34.128906 23.644531 -34.328125 22.949219 -34.328125 C 22.554688 -34.328125 22.109375 -34.328125 21.714844 -34.425781 C 21.316406 -34.523438 20.921875 -34.523438 20.527344 -34.523438 C 20.082031 -34.523438 19.636719 -34.523438 19.191406 -34.523438 Z M 9.496094 -15.480469 C 9.496094 -16.027344 9.496094 -16.570312 9.546875 -17.113281 C 9.546875 -17.3125 9.546875 -17.507812 9.546875 -17.707031 C 9.742188 -18.597656 9.742188 -19.488281 9.792969 -20.429688 C 9.84375 -20.921875 9.84375 -21.417969 9.992188 -21.910156 C 10.140625 -22.40625 10.140625 -23 10.289062 -23.542969 C 10.386719 -24.335938 10.585938 -25.078125 10.882812 -25.867188 C 11.128906 -26.859375 11.523438 -27.75 11.921875 -28.6875 C 12.117188 -29.132812 12.367188 -29.578125 12.710938 -29.925781 C 12.8125 -30.023438 12.859375 -30.074219 12.910156 -30.171875 C 13.304688 -30.765625 13.800781 -31.261719 14.394531 -31.65625 C 14.589844 -31.804688 14.789062 -32.003906 14.9375 -32.152344 C 15.382812 -32.496094 15.878906 -32.742188 16.421875 -32.890625 C 16.570312 -32.941406 16.71875 -32.941406 16.867188 -32.992188 C 17.214844 -33.089844 17.558594 -33.089844 17.90625 -33.039062 C 18.054688 -33.039062 18.203125 -32.992188 18.351562 -32.941406 C 18.796875 -32.890625 19.242188 -32.84375 19.6875 -32.792969 C 20.230469 -32.742188 20.773438 -32.59375 21.269531 -32.347656 C 21.761719 -32.152344 22.257812 -31.902344 22.753906 -31.605469 C 23.394531 -31.261719 23.941406 -30.863281 24.335938 -30.269531 C 24.683594 -29.777344 25.027344 -29.28125 25.324219 -28.738281 C 25.570312 -28.441406 25.71875 -28.046875 25.867188 -27.699219 C 26.265625 -26.757812 26.5625 -25.820312 26.859375 -24.832031 C 27.007812 -24.433594 27.054688 -23.941406 27.15625 -23.542969 C 27.304688 -23.050781 27.351562 -22.554688 27.5 -22.058594 C 27.601562 -21.613281 27.648438 -21.167969 27.75 -20.726562 C 27.898438 -20.179688 27.945312 -19.636719 28.046875 -19.09375 C 28.046875 -18.992188 28.09375 -18.894531 28.046875 -18.796875 C 28.046875 -17.804688 28.144531 -16.816406 27.996094 -15.777344 C 27.898438 -15.234375 27.898438 -14.691406 27.898438 -14.144531 C 27.847656 -13.109375 27.648438 -12.070312 27.402344 -11.03125 C 27.253906 -10.4375 27.105469 -9.84375 26.957031 -9.25 C 26.757812 -8.210938 26.414062 -7.121094 25.867188 -6.183594 C 25.523438 -5.492188 25.175781 -4.847656 24.78125 -4.203125 C 24.582031 -3.859375 24.335938 -3.511719 24.089844 -3.214844 C 23.691406 -2.671875 23.199219 -2.273438 22.554688 -2.027344 C 22.058594 -1.878906 21.613281 -1.730469 21.121094 -1.582031 C 20.921875 -1.535156 20.726562 -1.484375 20.527344 -1.484375 C 19.636719 -1.386719 18.746094 -1.433594 17.804688 -1.535156 C 17.359375 -1.535156 16.964844 -1.730469 16.519531 -1.832031 C 16.125 -1.976562 15.777344 -2.125 15.382812 -2.273438 C 15.183594 -2.375 14.9375 -2.523438 14.738281 -2.671875 C 13.800781 -3.363281 12.960938 -4.15625 12.167969 -4.996094 C 11.96875 -5.195312 11.820312 -5.441406 11.671875 -5.738281 C 11.328125 -6.628906 10.882812 -7.46875 10.535156 -8.359375 C 10.4375 -8.558594 10.386719 -8.707031 10.386719 -8.902344 C 10.289062 -9.496094 10.089844 -9.992188 10.089844 -10.535156 C 10.039062 -10.683594 9.992188 -10.832031 9.941406 -10.980469 C 9.84375 -11.277344 9.792969 -11.574219 9.792969 -11.871094 C 9.742188 -12.265625 9.695312 -12.664062 9.59375 -13.058594 C 9.546875 -13.257812 9.496094 -13.453125 9.496094 -13.652344 C 9.496094 -14.246094 9.496094 -14.839844 9.496094 -15.480469 Z M 9.496094 -15.480469 "/></g></g></g><g fill="#ffffff" fill-opacity="1"><g transform="translate(175.529912, 346.026106)"><g><path d="M 7.171875 -32.742188 C 8.113281 -32.742188 9.050781 -32.742188 10.039062 -32.742188 C 10.140625 -32.742188 10.238281 -32.742188 10.335938 -32.695312 C 10.832031 -32.546875 11.277344 -32.003906 11.277344 -31.457031 C 11.277344 -30.914062 11.277344 -30.371094 11.277344 -29.824219 C 11.277344 -29.082031 11.277344 -28.390625 11.328125 -27.699219 C 11.328125 -26.957031 11.328125 -26.214844 11.328125 -25.421875 C 11.328125 -20.230469 11.277344 -14.988281 11.277344 -9.792969 C 11.277344 -9.496094 11.277344 -9.199219 11.226562 -8.902344 C 11.179688 -8.410156 11.179688 -7.964844 11.179688 -7.519531 C 11.128906 -6.082031 11.078125 -4.601562 11.03125 -3.164062 C 11.03125 -3.015625 11.03125 -2.867188 10.980469 -2.71875 C 10.882812 -2.324219 10.734375 -1.976562 10.335938 -1.730469 C 10.1875 -1.632812 9.992188 -1.535156 9.792969 -1.484375 C 9.449219 -1.386719 9.050781 -1.238281 8.65625 -1.136719 C 8.261719 -0.988281 7.914062 -0.890625 7.519531 -0.742188 C 7.371094 -0.691406 7.269531 -0.59375 7.171875 -0.445312 C 7.074219 -0.296875 7.171875 0 7.371094 0 C 7.519531 0.0507812 7.667969 0.0976562 7.816406 0.0976562 C 11.96875 0.0507812 16.125 0.0507812 20.28125 0 C 20.429688 0 20.578125 0 20.726562 0 C 20.921875 -0.0507812 21.121094 -0.0976562 21.316406 -0.148438 C 21.367188 -0.199219 21.417969 -0.199219 21.464844 -0.246094 C 21.515625 -0.296875 21.566406 -0.394531 21.613281 -0.496094 C 21.664062 -0.542969 21.515625 -0.839844 21.417969 -0.839844 C 21.121094 -0.941406 20.824219 -1.039062 20.527344 -1.089844 C 19.984375 -1.1875 19.488281 -1.433594 18.992188 -1.632812 C 18.84375 -1.730469 18.746094 -1.78125 18.597656 -1.878906 C 18.398438 -2.078125 18.25 -2.273438 18.25 -2.523438 C 18.25 -3.859375 18.203125 -5.144531 18.203125 -6.429688 C 18.300781 -9.398438 18.351562 -12.367188 18.300781 -15.332031 C 18.300781 -19.339844 18.300781 -23.347656 18.300781 -27.402344 C 18.300781 -28.09375 18.300781 -28.785156 18.351562 -29.480469 C 18.351562 -30.714844 18.351562 -30.714844 18.597656 -31.902344 C 18.648438 -32.199219 18.894531 -32.398438 19.191406 -32.496094 C 19.289062 -32.496094 19.390625 -32.546875 19.488281 -32.546875 C 19.636719 -32.546875 19.785156 -32.546875 19.933594 -32.546875 C 20.773438 -32.546875 21.664062 -32.496094 22.503906 -32.496094 C 22.753906 -32.496094 23 -32.398438 23.246094 -32.347656 C 23.644531 -32.25 23.988281 -32.101562 24.335938 -31.902344 C 24.484375 -31.855469 24.632812 -31.753906 24.730469 -31.707031 C 25.273438 -31.308594 25.71875 -30.816406 26.066406 -30.222656 C 26.164062 -29.972656 26.3125 -29.726562 26.460938 -29.429688 C 26.757812 -28.933594 26.957031 -28.34375 27.105469 -27.75 C 27.15625 -27.304688 27.304688 -26.90625 27.453125 -26.460938 C 27.453125 -26.414062 27.5 -26.363281 27.550781 -26.363281 C 27.601562 -26.265625 27.699219 -26.214844 27.796875 -26.214844 C 27.847656 -26.164062 27.898438 -26.164062 27.945312 -26.164062 C 28.292969 -26.164062 28.539062 -26.363281 28.539062 -26.660156 C 28.589844 -27.402344 28.492188 -28.09375 28.390625 -28.785156 C 28.34375 -29.230469 28.292969 -29.675781 28.292969 -30.121094 C 28.242188 -31.011719 28.195312 -31.953125 28.195312 -32.84375 C 28.144531 -33.140625 28.144531 -33.4375 28.144531 -33.734375 C 28.09375 -33.929688 28.046875 -34.128906 27.945312 -34.328125 C 27.847656 -34.476562 27.75 -34.523438 27.601562 -34.574219 C 27.402344 -34.625 27.203125 -34.625 27.007812 -34.625 C 26.214844 -34.671875 25.375 -34.671875 24.582031 -34.671875 C 20.082031 -34.625 15.582031 -34.625 11.03125 -34.625 C 8.65625 -34.625 6.332031 -34.625 3.957031 -34.574219 C 3.511719 -34.574219 3.066406 -34.574219 2.621094 -34.574219 C 2.421875 -34.523438 2.226562 -34.476562 2.027344 -34.375 C 1.878906 -34.277344 1.730469 -34.03125 1.730469 -33.882812 C 1.683594 -33.734375 1.683594 -33.585938 1.683594 -33.4375 C 1.632812 -32.84375 1.632812 -32.25 1.535156 -31.605469 C 1.484375 -31.308594 1.484375 -31.011719 1.484375 -30.714844 C 1.433594 -30.171875 1.433594 -29.628906 1.386719 -29.082031 C 1.386719 -28.441406 1.386719 -27.75 1.1875 -27.15625 C 1.136719 -26.957031 1.1875 -26.757812 1.238281 -26.5625 C 1.386719 -26.164062 1.78125 -26.066406 2.125 -26.265625 C 2.175781 -26.265625 2.226562 -26.3125 2.226562 -26.363281 C 2.421875 -26.660156 2.570312 -27.007812 2.570312 -27.351562 C 2.671875 -28.09375 2.96875 -28.785156 3.3125 -29.480469 C 3.511719 -29.824219 3.710938 -30.171875 3.90625 -30.519531 C 4.105469 -30.816406 4.304688 -31.0625 4.550781 -31.308594 C 4.796875 -31.507812 4.996094 -31.707031 5.242188 -31.902344 C 5.589844 -32.199219 5.984375 -32.449219 6.429688 -32.546875 C 6.675781 -32.59375 6.925781 -32.695312 7.171875 -32.742188 Z M 7.171875 -32.742188 "/></g></g></g><g fill="#ffffff" fill-opacity="1"><g transform="translate(215.098255, 346.026106)"><g><path d="M 14.589844 0.0507812 C 15.085938 0.0507812 15.582031 0.0507812 16.074219 0.0507812 C 19.4375 0.0507812 22.800781 0.0507812 26.164062 0.0507812 C 26.609375 0.0507812 27.007812 0.0507812 27.402344 0 C 27.699219 0 27.996094 -0.148438 28.242188 -0.296875 C 28.390625 -0.445312 28.492188 -0.644531 28.539062 -0.839844 C 28.589844 -1.238281 28.589844 -1.632812 28.640625 -2.027344 C 28.6875 -2.273438 28.6875 -2.523438 28.738281 -2.769531 C 28.835938 -3.164062 28.886719 -3.5625 28.886719 -3.957031 C 28.933594 -4.601562 28.933594 -5.242188 29.035156 -5.886719 C 29.230469 -6.675781 29.230469 -7.519531 29.183594 -8.308594 C 29.183594 -8.558594 28.886719 -8.753906 28.640625 -8.65625 C 28.441406 -8.65625 28.292969 -8.507812 28.195312 -8.308594 C 28.144531 -8.160156 28.09375 -8.011719 28.09375 -7.863281 C 27.996094 -7.46875 27.945312 -7.074219 27.796875 -6.726562 C 27.699219 -6.332031 27.550781 -5.933594 27.351562 -5.589844 C 27.203125 -5.242188 27.007812 -4.898438 26.859375 -4.5 C 26.710938 -4.203125 26.511719 -3.90625 26.3125 -3.609375 C 26.117188 -3.363281 25.917969 -3.164062 25.671875 -2.96875 C 25.472656 -2.820312 25.273438 -2.671875 25.027344 -2.570312 C 24.730469 -2.375 24.433594 -2.226562 24.089844 -2.125 C 23.296875 -1.929688 22.554688 -1.730469 21.714844 -1.683594 C 21.023438 -1.683594 20.328125 -1.683594 19.636719 -1.535156 C 19.390625 -1.484375 19.09375 -1.484375 18.84375 -1.484375 C 17.015625 -1.484375 15.136719 -1.484375 13.304688 -1.484375 C 13.15625 -1.484375 13.007812 -1.484375 12.859375 -1.484375 C 12.761719 -1.535156 12.515625 -1.683594 12.515625 -1.78125 C 12.464844 -1.878906 12.414062 -1.976562 12.414062 -2.078125 C 12.414062 -2.671875 12.367188 -3.265625 12.367188 -3.859375 C 12.367188 -5.984375 12.367188 -8.113281 12.367188 -10.1875 C 12.367188 -11.226562 12.367188 -12.21875 12.515625 -13.207031 C 12.5625 -13.453125 12.5625 -13.699219 12.5625 -13.949219 C 12.613281 -14.640625 12.613281 -15.382812 12.664062 -16.074219 C 12.664062 -16.222656 12.664062 -16.371094 12.710938 -16.519531 C 12.710938 -16.621094 12.910156 -16.816406 13.007812 -16.816406 C 13.15625 -16.867188 13.402344 -16.917969 13.601562 -16.917969 C 15.183594 -16.867188 16.816406 -16.867188 18.398438 -16.867188 C 19.042969 -16.867188 19.585938 -16.71875 20.132812 -16.421875 C 20.230469 -16.324219 20.378906 -16.273438 20.527344 -16.175781 C 20.578125 -16.175781 20.578125 -16.125 20.625 -16.074219 C 20.824219 -15.976562 20.972656 -15.828125 21.023438 -15.628906 C 21.269531 -15.035156 21.464844 -14.394531 21.613281 -13.800781 C 21.714844 -13.453125 21.8125 -13.109375 21.960938 -12.761719 C 22.011719 -12.710938 22.058594 -12.613281 22.109375 -12.515625 C 22.207031 -12.367188 22.308594 -12.316406 22.503906 -12.316406 C 22.652344 -12.316406 22.851562 -12.515625 22.902344 -12.710938 C 22.902344 -12.859375 22.902344 -13.007812 22.902344 -13.15625 C 22.902344 -13.550781 22.851562 -13.949219 22.753906 -14.34375 C 22.652344 -14.738281 22.605469 -15.136719 22.605469 -15.53125 C 22.554688 -16.273438 22.554688 -17.015625 22.605469 -17.804688 C 22.652344 -18.101562 22.605469 -18.398438 22.703125 -18.695312 C 22.851562 -19.636719 22.851562 -20.578125 22.949219 -21.515625 C 23 -21.910156 22.949219 -22.257812 22.949219 -22.605469 C 22.949219 -22.703125 22.949219 -22.800781 22.902344 -22.902344 C 22.851562 -22.949219 22.753906 -23.050781 22.703125 -23.097656 C 22.652344 -23.148438 22.355469 -23.050781 22.308594 -23 C 22.207031 -22.851562 22.109375 -22.753906 22.058594 -22.605469 C 21.910156 -22.160156 21.8125 -21.714844 21.761719 -21.269531 C 21.664062 -20.824219 21.515625 -20.429688 21.367188 -19.984375 C 21.269531 -19.636719 21.023438 -19.390625 20.726562 -19.191406 C 20.179688 -18.84375 19.636719 -18.648438 19.042969 -18.648438 C 18.796875 -18.648438 18.546875 -18.597656 18.300781 -18.597656 C 16.621094 -18.597656 14.988281 -18.597656 13.304688 -18.597656 C 13.257812 -18.597656 13.207031 -18.597656 13.15625 -18.597656 C 12.960938 -18.648438 12.761719 -18.84375 12.761719 -18.992188 C 12.761719 -19.4375 12.761719 -19.933594 12.761719 -20.378906 C 12.761719 -20.773438 12.710938 -21.167969 12.761719 -21.566406 C 12.859375 -22.058594 12.859375 -22.554688 12.859375 -23.050781 C 12.859375 -24.136719 12.859375 -25.175781 12.859375 -26.214844 C 12.859375 -27.054688 12.910156 -27.847656 12.761719 -28.640625 C 12.710938 -28.785156 12.710938 -28.933594 12.710938 -29.082031 C 12.710938 -30.074219 12.664062 -31.113281 12.664062 -32.101562 C 12.613281 -32.25 12.664062 -32.398438 12.664062 -32.546875 C 12.664062 -32.695312 12.859375 -32.941406 13.058594 -32.992188 C 13.257812 -33.039062 13.453125 -33.039062 13.652344 -33.039062 C 15.53125 -33.039062 17.460938 -33.039062 19.339844 -33.039062 C 19.984375 -33.039062 20.578125 -33.039062 21.167969 -33.039062 C 21.367188 -33.039062 21.566406 -33.039062 21.761719 -32.992188 C 22.207031 -32.84375 22.652344 -32.84375 23.097656 -32.742188 C 23.246094 -32.695312 23.394531 -32.644531 23.496094 -32.546875 C 23.59375 -32.496094 23.691406 -32.449219 23.742188 -32.398438 C 24.582031 -31.65625 25.273438 -30.765625 25.867188 -29.824219 C 26.117188 -29.429688 26.363281 -28.984375 26.609375 -28.539062 C 26.660156 -28.441406 26.710938 -28.34375 26.710938 -28.242188 C 26.859375 -27.796875 27.054688 -27.402344 27.105469 -26.957031 C 27.105469 -26.808594 27.15625 -26.660156 27.203125 -26.511719 C 27.203125 -26.414062 27.253906 -26.3125 27.351562 -26.265625 C 27.402344 -26.214844 27.5 -26.164062 27.601562 -26.164062 C 27.699219 -26.117188 27.945312 -26.3125 27.945312 -26.414062 C 27.945312 -26.511719 27.996094 -26.609375 27.996094 -26.710938 C 27.996094 -27.453125 27.996094 -28.195312 27.898438 -28.933594 C 27.847656 -29.429688 27.796875 -29.972656 27.796875 -30.46875 C 27.796875 -31.210938 27.796875 -31.953125 27.796875 -32.695312 C 27.75 -33.1875 27.75 -33.632812 27.648438 -34.078125 C 27.648438 -34.226562 27.402344 -34.425781 27.253906 -34.476562 C 27.007812 -34.523438 26.757812 -34.523438 26.511719 -34.523438 C 21.566406 -34.574219 16.667969 -34.574219 11.722656 -34.625 C 11.375 -34.625 11.03125 -34.625 10.683594 -34.574219 C 10.039062 -34.523438 9.347656 -34.523438 8.707031 -34.523438 C 8.359375 -34.523438 8.011719 -34.476562 7.667969 -34.425781 C 6.675781 -34.226562 5.6875 -34.277344 4.648438 -34.425781 C 3.90625 -34.523438 3.164062 -34.523438 2.421875 -34.476562 C 2.273438 -34.476562 2.078125 -34.277344 2.078125 -34.078125 C 2.078125 -33.980469 2.125 -33.882812 2.175781 -33.78125 C 2.375 -33.585938 2.570312 -33.4375 2.820312 -33.4375 C 3.363281 -33.386719 3.90625 -33.1875 4.453125 -33.089844 C 4.699219 -33.039062 4.898438 -32.890625 5.09375 -32.695312 C 5.242188 -32.59375 5.34375 -32.398438 5.34375 -32.199219 C 5.390625 -31.902344 5.390625 -31.605469 5.390625 -31.308594 C 5.390625 -29.183594 5.390625 -27.054688 5.390625 -24.976562 C 5.441406 -23.988281 5.441406 -23.050781 5.492188 -22.109375 C 5.492188 -21.8125 5.492188 -21.515625 5.539062 -21.21875 C 5.640625 -20.726562 5.640625 -20.179688 5.640625 -19.6875 C 5.640625 -18.398438 5.640625 -17.066406 5.6875 -15.777344 C 5.738281 -15.136719 5.6875 -14.492188 5.640625 -13.847656 C 5.492188 -12.859375 5.492188 -11.921875 5.441406 -10.980469 C 5.441406 -10.335938 5.441406 -9.644531 5.390625 -9.003906 C 5.390625 -8.707031 5.390625 -8.410156 5.34375 -8.113281 C 5.144531 -7.46875 5.195312 -6.824219 5.195312 -6.183594 C 5.195312 -5.441406 5.195312 -4.75 5.195312 -4.054688 C 5.195312 -3.5625 5.144531 -3.066406 5.09375 -2.570312 C 5.046875 -2.175781 4.847656 -1.878906 4.5 -1.730469 C 4.304688 -1.582031 4.054688 -1.484375 3.808594 -1.386719 C 3.460938 -1.238281 3.066406 -1.1875 2.671875 -1.136719 C 2.324219 -1.089844 1.976562 -0.941406 1.683594 -0.742188 C 1.582031 -0.644531 1.535156 -0.496094 1.535156 -0.347656 C 1.535156 -0.199219 1.683594 -0.0507812 1.78125 0 C 1.976562 0.0976562 2.175781 0.0976562 2.375 0.0976562 C 5.09375 0.0976562 7.816406 0.148438 10.535156 0.148438 C 11.820312 0.148438 13.15625 0.199219 14.441406 0.0507812 C 14.492188 0.0507812 14.542969 0.0507812 14.589844 0.0507812 Z M 14.589844 0.0507812 "/></g></g></g><g fill="#ffffff" fill-opacity="1"><g transform="translate(256.15034, 346.026106)"><g><path d="M 5.144531 -1.535156 C 4.996094 -1.484375 4.898438 -1.484375 4.796875 -1.433594 C 4.304688 -1.285156 3.808594 -1.1875 3.3125 -1.1875 C 3.265625 -1.1875 3.214844 -1.136719 3.164062 -1.136719 C 2.769531 -1.136719 2.226562 -0.988281 1.730469 -0.742188 C 1.632812 -0.691406 1.582031 -0.59375 1.535156 -0.542969 C 1.386719 -0.347656 1.433594 -0.0976562 1.632812 0 C 1.78125 0.0507812 1.878906 0.148438 2.078125 0.0976562 C 2.769531 0.0507812 3.460938 0.0507812 4.15625 0.0507812 C 5.046875 0.0507812 5.984375 0.0507812 6.875 0.0507812 C 8.753906 -0.0507812 10.585938 -0.0507812 12.464844 0.0507812 C 12.5625 0.0507812 12.664062 0.0507812 12.761719 0.0507812 C 12.8125 0.0507812 12.859375 0.0507812 12.910156 0 C 13.007812 0 13.058594 -0.0976562 13.058594 -0.148438 C 13.058594 -0.199219 13.058594 -0.296875 13.058594 -0.296875 C 12.8125 -0.59375 12.515625 -0.792969 12.167969 -0.839844 C 11.625 -0.890625 11.179688 -1.089844 10.683594 -1.1875 C 10.484375 -1.238281 10.335938 -1.335938 10.140625 -1.433594 C 9.941406 -1.582031 9.792969 -1.878906 9.890625 -2.125 C 10.140625 -2.867188 10.484375 -3.609375 10.980469 -4.253906 C 11.425781 -4.847656 11.871094 -5.441406 12.316406 -6.035156 C 12.761719 -6.628906 13.15625 -7.222656 13.453125 -7.816406 C 13.800781 -8.507812 14.195312 -9.152344 14.589844 -9.792969 C 14.789062 -10.039062 14.9375 -10.289062 15.085938 -10.535156 C 15.480469 -11.179688 15.925781 -11.773438 16.371094 -12.414062 C 16.519531 -12.5625 16.769531 -12.515625 16.867188 -12.367188 C 17.164062 -11.921875 17.359375 -11.476562 17.507812 -10.980469 C 17.707031 -10.535156 17.953125 -10.089844 18.203125 -9.644531 C 18.597656 -8.902344 19.042969 -8.160156 19.585938 -7.46875 C 19.785156 -7.222656 19.933594 -6.875 20.082031 -6.578125 C 20.28125 -6.035156 20.578125 -5.589844 20.726562 -5.046875 C 20.972656 -4.699219 21.167969 -4.351562 21.367188 -4.007812 C 21.464844 -3.90625 21.515625 -3.757812 21.613281 -3.609375 C 21.910156 -3.066406 22.257812 -2.472656 22.554688 -1.929688 C 22.605469 -1.832031 22.652344 -1.730469 22.652344 -1.632812 C 22.753906 -1.535156 22.652344 -1.285156 22.554688 -1.238281 C 22.109375 -1.039062 21.613281 -0.890625 21.121094 -0.890625 C 20.921875 -0.839844 20.726562 -0.839844 20.527344 -0.792969 C 20.429688 -0.742188 20.230469 -0.542969 20.230469 -0.445312 C 20.230469 -0.296875 20.429688 0 20.578125 0 C 20.675781 0 20.773438 0.0507812 20.875 0.0507812 C 22.605469 0.0976562 24.386719 0 26.164062 -0.0507812 C 26.265625 -0.0507812 26.363281 -0.0507812 26.460938 -0.0976562 C 27.054688 -0.199219 27.648438 -0.199219 28.242188 -0.199219 C 29.875 -0.199219 31.457031 -0.246094 33.089844 -0.246094 C 33.335938 -0.246094 33.585938 -0.296875 33.832031 -0.296875 C 33.980469 -0.347656 34.078125 -0.445312 34.128906 -0.59375 C 34.179688 -0.691406 34.179688 -0.742188 34.078125 -0.839844 C 33.882812 -0.988281 33.632812 -1.039062 33.386719 -1.089844 C 33.039062 -1.136719 32.695312 -1.1875 32.347656 -1.238281 C 32.152344 -1.238281 31.953125 -1.335938 31.753906 -1.433594 C 31.558594 -1.535156 31.359375 -1.683594 31.113281 -1.832031 C 30.765625 -2.078125 30.417969 -2.375 30.171875 -2.769531 C 29.726562 -3.460938 29.332031 -4.105469 28.933594 -4.847656 C 28.34375 -5.933594 27.75 -7.023438 27.15625 -8.160156 C 26.609375 -9.050781 26.117188 -9.992188 25.523438 -10.882812 C 25.375 -11.128906 25.226562 -11.375 25.078125 -11.625 C 24.929688 -11.921875 24.78125 -12.167969 24.632812 -12.414062 C 24.039062 -13.402344 23.496094 -14.441406 23 -15.480469 C 22.703125 -16.074219 22.40625 -16.621094 22.058594 -17.214844 C 21.8125 -17.609375 21.566406 -18.101562 21.367188 -18.546875 C 21.269531 -18.695312 21.269531 -18.945312 21.316406 -19.09375 C 21.664062 -19.785156 22.160156 -20.378906 22.503906 -21.070312 C 22.554688 -21.167969 22.652344 -21.316406 22.753906 -21.417969 C 22.800781 -21.464844 22.800781 -21.515625 22.851562 -21.515625 C 23.199219 -21.863281 23.394531 -22.257812 23.59375 -22.652344 C 23.792969 -23.050781 23.988281 -23.496094 24.238281 -23.839844 C 24.484375 -24.285156 24.730469 -24.730469 24.976562 -25.175781 C 25.125 -25.421875 25.273438 -25.71875 25.421875 -25.96875 C 26.164062 -26.957031 26.808594 -28.046875 27.601562 -29.035156 C 28.242188 -29.875 28.933594 -30.667969 29.578125 -31.507812 C 29.777344 -31.855469 30.121094 -32.101562 30.46875 -32.300781 C 30.863281 -32.546875 31.261719 -32.742188 31.65625 -32.992188 C 31.953125 -33.140625 32.300781 -33.1875 32.59375 -33.335938 C 32.742188 -33.4375 32.890625 -33.4375 33.039062 -33.535156 C 33.089844 -33.585938 33.140625 -33.683594 33.1875 -33.78125 C 33.289062 -33.929688 33.1875 -34.226562 33.039062 -34.226562 C 32.890625 -34.277344 32.742188 -34.328125 32.59375 -34.328125 C 32.25 -34.328125 31.855469 -34.328125 31.507812 -34.328125 C 29.972656 -34.328125 28.390625 -34.328125 26.859375 -34.328125 C 26.460938 -34.328125 26.066406 -34.375 25.671875 -34.425781 C 25.273438 -34.523438 24.878906 -34.574219 24.433594 -34.574219 C 23.742188 -34.574219 23.050781 -34.574219 22.355469 -34.574219 C 22.207031 -34.574219 22.058594 -34.574219 21.910156 -34.523438 C 21.8125 -34.523438 21.714844 -34.476562 21.613281 -34.425781 C 21.464844 -34.328125 21.417969 -34.226562 21.367188 -34.078125 C 21.367188 -33.929688 21.464844 -33.78125 21.613281 -33.734375 C 21.664062 -33.734375 21.714844 -33.683594 21.761719 -33.683594 C 22.257812 -33.585938 22.753906 -33.484375 23.246094 -33.4375 C 23.644531 -33.4375 24.039062 -33.386719 24.433594 -33.289062 C 24.78125 -33.1875 25.125 -33.089844 25.421875 -33.039062 C 25.769531 -32.84375 26.015625 -32.59375 26.214844 -32.300781 C 26.460938 -32.003906 26.460938 -31.605469 26.3125 -31.308594 C 26.066406 -30.765625 25.71875 -30.269531 25.375 -29.726562 C 25.125 -29.332031 24.78125 -28.984375 24.535156 -28.492188 C 23.644531 -27.304688 22.851562 -26.015625 21.960938 -24.78125 C 21.316406 -23.890625 20.675781 -23 19.984375 -22.160156 C 19.835938 -21.960938 19.585938 -21.960938 19.4375 -22.109375 C 19.242188 -22.457031 18.992188 -22.800781 18.746094 -23.148438 C 18.152344 -24.089844 17.507812 -25.078125 17.015625 -26.117188 C 16.769531 -26.609375 16.472656 -27.054688 16.175781 -27.550781 C 15.925781 -27.996094 15.679688 -28.441406 15.433594 -28.835938 C 14.988281 -29.628906 14.640625 -30.46875 14.34375 -31.308594 C 14.292969 -31.457031 14.292969 -31.605469 14.292969 -31.753906 C 14.394531 -32.25 14.589844 -32.644531 14.9375 -32.941406 C 14.988281 -33.039062 15.085938 -33.089844 15.183594 -33.140625 C 15.480469 -33.289062 15.828125 -33.4375 16.175781 -33.4375 C 16.371094 -33.4375 16.570312 -33.4375 16.769531 -33.484375 C 16.917969 -33.535156 17.066406 -33.585938 17.164062 -33.683594 C 17.359375 -33.882812 17.3125 -34.226562 17.066406 -34.328125 C 16.917969 -34.328125 16.769531 -34.425781 16.621094 -34.425781 C 16.027344 -34.425781 15.433594 -34.425781 14.789062 -34.425781 C 13.207031 -34.328125 11.574219 -34.375 9.992188 -34.375 C 9.496094 -34.328125 9.003906 -34.375 8.507812 -34.476562 C 8.261719 -34.523438 8.011719 -34.574219 7.765625 -34.574219 C 6.972656 -34.574219 6.230469 -34.625 5.492188 -34.625 C 4.5 -34.574219 3.460938 -34.523438 2.472656 -34.574219 C 2.421875 -34.574219 2.375 -34.523438 2.324219 -34.523438 C 2.175781 -34.523438 2.027344 -34.476562 1.878906 -34.375 C 1.632812 -34.226562 1.535156 -33.832031 1.730469 -33.585938 C 1.832031 -33.484375 1.929688 -33.386719 2.125 -33.386719 C 2.621094 -33.386719 3.117188 -33.238281 3.5625 -33.140625 C 4.203125 -32.992188 4.699219 -32.742188 5.144531 -32.300781 C 5.390625 -32.050781 5.640625 -31.753906 5.785156 -31.457031 C 6.972656 -29.726562 8.0625 -27.898438 9.101562 -26.066406 C 9.644531 -25.175781 10.140625 -24.238281 10.734375 -23.347656 C 11.179688 -22.703125 11.671875 -22.058594 11.96875 -21.316406 C 12.464844 -20.675781 12.761719 -19.882812 13.207031 -19.242188 C 13.402344 -18.945312 13.550781 -18.648438 13.699219 -18.300781 C 14.046875 -17.65625 14.394531 -16.964844 14.839844 -16.371094 C 14.886719 -16.273438 14.9375 -16.175781 14.9375 -16.074219 C 14.988281 -15.925781 14.988281 -15.777344 14.9375 -15.628906 C 14.886719 -15.480469 14.789062 -15.382812 14.738281 -15.234375 C 14.246094 -14.492188 13.75 -13.699219 13.257812 -12.960938 C 12.960938 -12.5625 12.710938 -12.117188 12.414062 -11.722656 C 12.167969 -11.277344 11.921875 -10.832031 11.625 -10.4375 C 11.523438 -10.238281 11.425781 -10.089844 11.328125 -9.890625 C 10.929688 -9.101562 10.4375 -8.359375 9.941406 -7.566406 C 9.742188 -7.222656 9.546875 -6.875 9.300781 -6.527344 C 8.605469 -5.390625 7.816406 -4.304688 6.972656 -3.214844 C 6.480469 -2.570312 5.933594 -2.027344 5.144531 -1.535156 Z M 5.144531 -1.535156 "/></g></g></g><g clip-path="url(#97c717daaa)"><path fill="#ffffff" d="M 261.570312 256.523438 C 249.179688 256.5 242.410156 260.8125 236.207031 264.765625 C 228.894531 269.421875 222.335938 273.597656 208.761719 270.164062 C 208.480469 270.089844 207.65625 269.824219 206.417969 269.425781 C 199.46875 267.179688 179.015625 260.566406 167.398438 260.421875 C 161.695312 260.351562 159.601562 261.558594 159.578125 263.378906 C 159.53125 267.375 167.476562 274.371094 172.175781 278.5 L 172.179688 278.5 C 173.410156 279.585938 174.425781 280.476562 175.066406 281.121094 C 179.539062 285.613281 181.046875 289.859375 180.515625 292.953125 C 180.226562 294.636719 179.355469 295.984375 178.03125 296.882812 C 176.742188 297.75 175.046875 298.175781 173.066406 298.039062 C 168.152344 297.695312 161.328125 293.828125 154.78125 284.472656 C 152.675781 281.46875 150.617188 278.535156 148.4375 276.5625 C 146.386719 274.707031 144.203125 273.6875 141.730469 274.296875 C 137.820312 275.25 137.265625 278.910156 136.652344 282.9375 C 135.972656 287.398438 135.234375 292.261719 130.339844 295.164062 C 125.898438 297.804688 122.179688 297.132812 118.34375 296.441406 C 115.464844 295.925781 112.515625 295.394531 109.199219 296.410156 C 105.859375 297.4375 102.386719 298.367188 98.855469 298.851562 C 95.757812 299.273438 92.621094 299.351562 89.488281 298.835938 L 90.503906 297.304688 C 93.214844 297.660156 95.9375 297.566406 98.628906 297.199219 C 102.0625 296.730469 105.453125 295.816406 108.71875 294.816406 C 112.410156 293.683594 115.5625 294.25 118.636719 294.800781 C 122.160156 295.4375 125.578125 296.050781 129.492188 293.726562 C 133.703125 291.230469 134.378906 286.773438 135 282.691406 C 135.699219 278.078125 136.335938 273.894531 141.339844 272.671875 C 144.453125 271.914062 147.105469 273.109375 149.554688 275.324219 C 151.875 277.425781 153.988281 280.433594 156.144531 283.515625 C 162.359375 292.398438 168.6875 296.0625 173.175781 296.371094 C 174.773438 296.484375 176.113281 296.160156 177.097656 295.496094 C 178.039062 294.859375 178.664062 293.886719 178.871094 292.671875 C 179.320312 290.058594 177.933594 286.359375 173.882812 282.296875 C 173.324219 281.734375 172.308594 280.839844 171.074219 279.757812 L 171.078125 279.753906 C 166.164062 275.433594 157.855469 268.121094 157.914062 263.359375 C 157.949219 260.546875 160.492188 258.671875 167.417969 258.757812 C 179.292969 258.902344 199.917969 265.570312 206.925781 267.835938 C 208.113281 268.21875 208.902344 268.476562 209.167969 268.542969 C 222.054688 271.804688 228.324219 267.8125 235.308594 263.363281 C 239.25 260.851562 243.414062 258.199219 249.03125 256.539062 C 253.199219 255.308594 258.707031 254.953125 261.570312 256.523438 " fill-opacity="1" fill-rule="nonzero"/></g><g clip-path="url(#7dcf726ba8)"><path fill="#ffffff" d="M 107.921875 271.070312 C 100.640625 263.226562 104.902344 246.070312 107.519531 236.148438 C 111.128906 223.453125 115.429688 212.0625 120.011719 203.507812 C 127.371094 199.066406 157.367188 187.292969 179.0625 149.71875 L 153.328125 161.265625 C 185.046875 140.335938 206.433594 100.867188 246.019531 79.523438 C 246.019531 79.523438 219.195312 80.785156 204.949219 90.757812 C 204.949219 90.757812 221.605469 76.59375 263.65625 70.410156 L 247.945312 62.621094 L 269.371094 65.414062 C 269.371094 65.414062 279.789062 40.230469 307.628906 30.988281 C 307.628906 30.988281 208.703125 7.902344 175.5 83.984375 C 175.5 83.984375 181.460938 65.136719 190.59375 48.894531 C 190.59375 48.894531 144.082031 58.839844 121.753906 122.457031 C 121.753906 122.457031 127.109375 96.347656 132.785156 84.710938 C 132.785156 84.710938 104.199219 110.296875 105.402344 160.992188 C 105.402344 160.992188 98.789062 143.914062 100.550781 129.6875 C 100.550781 129.6875 77.515625 161.078125 106.074219 196.84375 C 109.8125 188.5 146.199219 103.660156 202.292969 74.625 C 135.328125 124.210938 98.207031 217.390625 89.488281 298.839844 L 107.921875 271.070312 " fill-opacity="1" fill-rule="evenodd"/></g></svg>