<?xml version="1.0" standalone="no"?>
<!DOCTYPE svg PUBLIC "-//W3C//DTD SVG 20010904//EN"
 "http://www.w3.org/TR/2001/REC-SVG-20010904/DTD/svg10.dtd">
<svg version="1.0" xmlns="http://www.w3.org/2000/svg"
 width="700.000000pt" height="700.000000pt" viewBox="0 0 700.000000 700.000000"
 preserveAspectRatio="xMidYMid meet">
<metadata>
Created by potrace 1.14, written by Peter Selinger 2001-2017
</metadata>
<g transform="translate(0.000000,700.000000) scale(0.100000,-0.100000)"
fill="#000000" stroke="none">
<path d="M5199 6856 c-2 -2 -33 -6 -69 -10 -108 -9 -269 -30 -315 -41 -5 -1
-28 -5 -50 -9 -272 -52 -587 -167 -813 -297 -89 -51 -264 -168 -282 -189 -3
-3 -21 -18 -40 -34 -212 -173 -399 -410 -544 -690 -25 -48 -46 -84 -46 -79 0
5 25 74 56 153 31 80 64 165 74 190 28 75 80 188 155 338 40 78 71 142 70 142
-7 0 -114 -33 -130 -40 -11 -5 -54 -23 -95 -39 -331 -135 -713 -440 -973 -778
-202 -264 -344 -521 -496 -898 -24 -61 -26 -51 -5 35 9 36 17 72 19 80 45 205
154 565 210 695 l17 40 -32 -30 c-69 -65 -219 -268 -295 -399 -131 -228 -255
-560 -299 -801 -39 -208 -54 -359 -57 -552 -2 -133 -6 -130 -57 57 -48 174
-69 316 -68 462 1 71 -2 128 -6 128 -3 0 -29 -44 -57 -99 -102 -199 -155 -413
-155 -631 1 -68 13 -221 20 -231 2 -3 6 -21 9 -40 30 -177 175 -481 307 -642
l23 -28 49 108 c151 332 443 882 581 1093 12 19 44 69 70 110 482 764 1042
1358 1577 1676 60 35 111 64 114 64 3 0 -38 -34 -93 -77 -54 -42 -100 -79
-103 -82 -3 -4 -21 -19 -40 -35 -116 -95 -367 -336 -505 -486 -464 -503 -931
-1223 -1240 -1910 -25 -56 -54 -121 -65 -144 -32 -71 -77 -179 -95 -231 -10
-27 -22 -54 -26 -60 -3 -5 -25 -60 -47 -120 -22 -61 -45 -122 -51 -135 -20
-48 -154 -450 -167 -500 -2 -8 -26 -94 -54 -190 -67 -230 -140 -528 -180 -735
-6 -27 -13 -61 -16 -75 -9 -45 -72 -414 -78 -465 -4 -27 -11 -75 -16 -105 -5
-30 -12 -82 -15 -115 -3 -33 -8 -79 -11 -102 l-6 -43 39 -1 c199 -4 312 10
458 58 33 11 195 7 270 -7 128 -23 246 9 319 86 53 57 84 138 101 264 24 182
102 249 231 200 33 -13 144 -125 180 -182 15 -23 30 -46 35 -52 5 -6 30 -38
56 -71 100 -127 216 -220 320 -257 233 -82 361 90 223 299 -44 68 -65 90 -190
203 -190 172 -270 268 -275 332 -4 45 17 65 84 79 115 24 332 -5 647 -86 147
-38 156 -41 358 -105 168 -53 245 -70 334 -74 171 -7 286 30 498 164 140 88
211 125 300 154 90 30 217 53 286 52 59 -1 48 12 -18 23 -151 23 -333 -33
-555 -171 -193 -121 -250 -149 -354 -169 -53 -11 -180 -13 -230 -4 -73 13
-101 21 -296 80 -245 76 -454 130 -616 160 -16 3 -39 7 -53 11 -14 3 -86 8
-160 10 -107 3 -146 1 -183 -12 -87 -30 -108 -89 -62 -180 36 -70 133 -178
266 -294 154 -134 220 -223 234 -312 8 -50 -16 -103 -55 -123 -128 -66 -356
71 -520 310 -90 132 -170 219 -229 250 -40 20 -110 26 -155 13 -79 -24 -121
-95 -141 -236 -20 -136 -59 -230 -115 -270 -62 -43 -122 -60 -203 -56 -43 2
-95 8 -115 14 -67 18 -177 12 -275 -16 -103 -29 -108 -30 -192 -44 -71 -12
-215 -13 -214 -2 1 10 45 78 251 386 l178 266 -31 47 c-52 83 -64 140 -63 308
0 129 5 171 32 300 64 302 182 656 313 935 l51 109 72 37 c271 141 543 317
696 449 163 141 323 306 412 421 12 16 25 31 29 34 22 18 190 260 258 372 l23
38 -44 -19 c-42 -18 -296 -132 -393 -176 -27 -12 -75 -33 -105 -45 -30 -13
-59 -27 -64 -32 -6 -4 -14 -8 -19 -8 -5 0 29 27 75 60 47 33 132 99 189 147
112 93 473 451 684 678 138 150 557 571 640 645 182 162 412 332 608 449 48
29 87 55 87 58 0 8 -160 -9 -300 -32 -122 -20 -136 -23 -225 -46 -44 -12 -84
-22 -90 -23 -35 -7 -163 -55 -232 -87 -46 -21 -83 -36 -83 -35 0 11 170 101
320 169 234 106 595 206 1005 278 l70 12 -187 93 c-102 51 -184 94 -182 97 3
2 24 1 47 -3 23 -5 67 -11 97 -15 71 -8 107 -12 205 -26 44 -6 99 -12 123 -13
42 -1 44 0 73 54 202 366 526 657 867 776 28 10 52 22 52 25 0 4 -21 10 -47
13 -27 4 -55 9 -63 11 -34 7 -90 15 -180 25 -52 6 -106 14 -120 17 -29 6 -714
15 -721 9z"/>
</g>
</svg>
